<?xml version="1.0" standalone="no"?>
<!DOCTYPE svg PUBLIC "-//W3C//DTD SVG 20010904//EN"
 "http://www.w3.org/TR/2001/REC-SVG-20010904/DTD/svg10.dtd">
<svg version="1.0" xmlns="http://www.w3.org/2000/svg"
 width="512.000000pt" height="512.000000pt" viewBox="0 0 512.000000 512.000000"
 preserveAspectRatio="xMidYMid meet">
<metadata>
Created by potrace 1.14, written by Peter Selinger 2001-2017
</metadata>
<g transform="translate(0.000000,512.000000) scale(0.100000,-0.100000)"
fill="#000000" stroke="none">
<path d="M2386 5108 c3 -4 -14 -8 -38 -9 -46 -1 -68 -3 -138 -13 -80 -11 -135
-20 -190 -32 -14 -3 -32 -7 -40 -9 -8 -2 -15 -4 -15 -5 0 -1 -11 -3 -25 -4
-14 -2 -34 -7 -45 -12 -11 -6 -27 -10 -35 -9 -8 1 -24 -3 -35 -9 -11 -6 -24
-11 -30 -12 -5 0 -17 -4 -25 -7 -8 -3 -40 -14 -70 -25 -30 -11 -78 -29 -106
-40 -29 -11 -55 -18 -58 -15 -3 4 -6 2 -6 -4 0 -9 -64 -39 -66 -31 0 2 -8 -5
-18 -15 -10 -9 -22 -15 -27 -12 -5 4 -9 1 -9 -5 0 -6 -4 -8 -10 -5 -5 3 -10 3
-10 -2 0 -4 -22 -18 -48 -30 -26 -12 -65 -33 -85 -47 -20 -14 -37 -22 -37 -18
0 4 -4 2 -8 -4 -4 -5 -25 -21 -47 -34 -22 -13 -44 -28 -50 -32 -5 -5 -35 -27
-66 -51 -31 -23 -71 -53 -89 -67 -90 -68 -266 -237 -262 -251 1 -6 -2 -8 -7
-5 -5 3 -15 -4 -24 -17 -8 -12 -31 -39 -51 -61 -43 -45 -134 -165 -191 -251
-22 -33 -43 -62 -46 -65 -3 -3 -11 -20 -18 -37 -8 -18 -16 -33 -20 -33 -3 0
-15 -20 -26 -45 -11 -25 -23 -45 -28 -45 -4 0 -5 -4 -2 -10 3 -5 1 -10 -4 -10
-6 0 -11 -5 -11 -11 0 -6 -14 -38 -30 -71 -17 -33 -28 -63 -25 -68 3 -4 0 -10
-7 -12 -6 -2 -13 -11 -14 -19 -4 -17 -31 -96 -43 -124 -18 -40 -60 -175 -64
-205 -2 -8 -5 -19 -8 -25 -6 -9 -13 -39 -25 -105 -2 -8 -6 -31 -9 -50 -13 -68
-15 -80 -20 -112 -28 -185 -27 -561 2 -738 3 -19 7 -44 8 -55 1 -11 3 -20 4
-20 2 0 4 -11 7 -25 5 -34 17 -93 20 -105 2 -5 6 -21 9 -35 3 -14 7 -29 9 -35
31 -113 44 -155 75 -231 11 -29 17 -55 14 -58 -4 -3 -1 -6 5 -6 7 0 12 -9 12
-20 0 -11 4 -20 8 -20 5 0 9 -6 9 -14 0 -18 103 -229 117 -238 6 -4 7 -8 3 -8
-5 0 1 -13 13 -30 12 -16 18 -30 13 -30 -4 0 0 -5 9 -11 10 -5 18 -14 18 -20
0 -5 16 -32 35 -59 19 -27 35 -54 35 -60 0 -5 4 -10 8 -10 4 0 19 -18 32 -40
14 -22 28 -40 33 -40 4 0 7 -4 7 -10 0 -5 8 -18 17 -28 10 -10 38 -43 63 -73
59 -71 221 -233 289 -289 29 -25 59 -51 67 -58 7 -6 16 -12 21 -12 5 0 16 -8
24 -17 22 -25 59 -48 71 -45 5 1 7 -1 4 -6 -3 -5 9 -17 27 -27 18 -10 37 -24
44 -29 37 -32 44 -37 52 -32 5 3 12 -1 15 -10 3 -8 10 -13 15 -10 5 4 11 3 13
-1 4 -10 50 -37 118 -70 30 -15 58 -31 61 -36 4 -5 11 -7 17 -3 6 3 14 1 19
-7 4 -7 27 -19 51 -27 23 -7 42 -17 42 -22 0 -4 3 -7 8 -7 4 1 10 0 15 -1 4
-1 10 -3 15 -5 11 -3 45 -16 67 -26 37 -16 200 -66 255 -78 30 -7 62 -15 70
-18 8 -3 22 -7 30 -8 8 -2 31 -5 50 -9 222 -36 258 -39 475 -40 168 -1 272 5
355 18 28 5 117 17 125 17 2 1 28 7 56 14 29 8 56 12 61 9 4 -3 8 -1 8 3 0 5
11 10 25 11 56 5 65 7 65 14 0 4 8 8 18 8 9 0 55 14 102 31 47 17 106 37 133
45 26 9 47 19 47 24 0 4 8 7 18 6 9 -2 20 2 24 8 4 6 11 11 15 11 4 1 18 6 29
13 12 6 24 8 28 5 3 -3 6 -1 6 6 0 7 4 10 9 7 5 -4 11 -3 13 1 1 5 38 26 81
48 42 21 77 43 77 48 0 4 4 6 9 2 5 -3 15 0 23 7 7 7 27 20 43 28 17 8 32 18
35 22 3 3 29 22 58 43 29 20 62 44 73 53 11 9 22 16 24 15 3 -2 14 5 24 15 10
9 37 34 60 55 23 21 41 35 41 32 0 -3 15 10 32 30 18 19 39 35 45 35 7 0 13 7
13 15 0 8 7 15 15 15 8 0 15 5 15 10 0 6 25 35 55 65 30 29 55 59 55 66 0 7 3
10 6 6 3 -3 33 29 67 71 33 42 64 78 69 80 4 2 8 10 8 18 0 8 7 17 15 20 8 4
15 10 15 15 0 11 62 103 73 107 4 2 5 8 1 13 -3 5 2 12 10 15 9 3 14 9 12 13
-3 4 6 20 20 36 13 15 24 36 24 47 0 10 3 18 8 18 4 0 25 37 47 83 22 45 45
85 50 89 6 4 6 8 1 8 -5 0 -3 7 4 15 7 8 9 15 6 15 -4 0 3 14 15 32 13 17 16
28 8 23 -12 -7 -12 -6 -1 7 7 9 15 26 17 39 3 12 10 26 17 31 7 4 10 8 6 8 -4
0 -3 12 3 28 11 28 58 176 64 202 2 8 4 17 5 20 1 3 3 10 4 15 1 6 5 24 9 40
28 115 62 333 59 383 -1 16 2 21 11 16 7 -5 6 0 -3 11 -8 10 -10 16 -4 12 7
-4 11 44 13 155 1 93 -1 158 -7 154 -5 -3 -9 1 -9 9 0 8 3 12 7 10 4 -2 7 2 7
10 0 8 -4 12 -9 9 -4 -3 -8 14 -9 38 0 24 -2 50 -3 58 -2 8 -6 38 -10 65 -3
28 -9 66 -13 85 -4 19 -7 45 -7 58 -1 12 -5 22 -10 22 -4 0 -6 6 -3 14 3 8 3
17 -1 20 -3 4 -7 14 -8 24 -1 9 -8 35 -14 57 -7 22 -13 51 -15 65 -2 14 -4 27
-5 30 -1 3 -2 8 -1 13 0 4 -3 7 -9 7 -5 0 -10 9 -10 20 0 10 -5 32 -11 47 -6
15 -15 37 -19 48 -5 11 -16 43 -26 70 -10 28 -21 55 -26 61 -4 6 -5 14 -1 17
3 4 0 7 -7 7 -7 0 -10 3 -7 7 4 3 1 16 -6 27 -8 12 -19 38 -26 59 -7 20 -17
37 -22 37 -5 0 -9 9 -9 20 0 11 -3 20 -8 20 -4 0 -13 15 -21 33 -8 17 -17 34
-20 37 -3 3 -17 25 -30 50 -13 25 -30 52 -37 61 -8 8 -14 21 -14 27 0 6 -6 15
-13 19 -6 4 -18 20 -25 34 -8 15 -25 38 -38 53 -14 14 -22 26 -19 26 4 0 0 7
-7 15 -16 18 -27 31 -91 108 -67 80 -238 252 -302 302 -27 21 -59 47 -70 57
-37 34 -114 88 -124 88 -6 0 -11 3 -11 8 0 10 -162 112 -178 112 -7 0 -12 4
-12 8 0 5 -16 14 -35 22 -19 8 -35 17 -35 22 0 4 -5 8 -12 8 -17 0 -102 42
-110 54 -4 6 -8 7 -8 3 0 -4 -10 -2 -22 5 -13 7 -26 13 -30 14 -5 1 -10 3 -13
4 -3 1 -8 3 -12 5 -5 1 -24 9 -43 17 -45 19 -73 31 -82 33 -5 2 -9 3 -10 5 -2
1 -10 3 -18 5 -8 2 -43 12 -77 24 -34 11 -79 23 -100 28 -46 9 -45 8 -63 16
-8 3 -30 9 -47 12 -18 3 -48 7 -65 10 -18 3 -46 8 -63 11 -16 3 -41 7 -55 9
-14 3 -65 8 -113 11 -51 4 -83 10 -75 15 9 6 6 8 -9 6 -12 0 -20 -4 -18 -7 2
-4 -2 -7 -10 -7 -8 0 -12 4 -10 8 3 4 -53 7 -125 6 -71 0 -127 -3 -125 -7 2
-4 -2 -7 -10 -7 -8 0 -12 3 -10 7 2 4 -2 7 -10 7 -8 0 -12 -4 -9 -9z"/>
</g>
</svg>
